<svg xmlns="http://www.w3.org/2000/svg" viewBox="0 0 277.8 282.09"><defs><style>.cls-1{fill:#fff;stroke:#000;stroke-miterlimit:10;stroke-width:3.09px;}</style></defs><title>Asset 1</title><g id="Layer_2" data-name="Layer 2"><g id="Layer_1-2" data-name="Layer 1"><ellipse class="cls-1" cx="138.9" cy="72.04" rx="18.2" ry="69"/><ellipse class="cls-1" cx="115.3" cy="76.2" rx="18.2" ry="69" transform="translate(-19.11 44.03) rotate(-20)"/><ellipse class="cls-1" cx="94.55" cy="88.19" rx="18.2" ry="69" transform="translate(-34.57 81.41) rotate(-40)"/><ellipse class="cls-1" cx="79.15" cy="106.54" rx="18.2" ry="69" transform="translate(-52.7 121.81) rotate(-60)"/><ellipse class="cls-1" cx="70.95" cy="129.06" rx="18.2" ry="69" transform="translate(-68.47 176.52) rotate(-80)"/><ellipse class="cls-1" cx="70.95" cy="153.03" rx="69" ry="18.2" transform="translate(-25.49 14.65) rotate(-10)"/><ellipse class="cls-1" cx="79.15" cy="175.54" rx="69" ry="18.2" transform="translate(-77.17 63.09) rotate(-30)"/><ellipse class="cls-1" cx="94.55" cy="193.9" rx="69" ry="18.2" transform="translate(-114.76 141.69) rotate(-50)"/><ellipse class="cls-1" cx="115.3" cy="205.88" rx="69" ry="18.2" transform="translate(-117.6 243.81) rotate(-70)"/><ellipse class="cls-1" cx="138.9" cy="210.04" rx="18.2" ry="69"/><ellipse class="cls-1" cx="162.5" cy="205.88" rx="18.2" ry="69" transform="translate(-60.62 67.99) rotate(-20)"/><ellipse class="cls-1" cx="183.25" cy="193.9" rx="18.2" ry="69" transform="translate(-81.76 163.16) rotate(-40)"/><ellipse class="cls-1" cx="198.66" cy="175.54" rx="18.2" ry="69" transform="translate(-52.7 259.81) rotate(-60)"/><ellipse class="cls-1" cx="206.85" cy="153.03" rx="18.2" ry="69" transform="translate(20.23 330.16) rotate(-80)"/><ellipse class="cls-1" cx="206.85" cy="129.06" rx="69" ry="18.2" transform="matrix(0.98, -0.17, 0.17, 0.98, -19.27, 37.88)"/><ellipse class="cls-1" cx="198.66" cy="106.54" rx="69" ry="18.2" transform="translate(-26.66 113.6) rotate(-30)"/><ellipse class="cls-1" cx="183.25" cy="88.19" rx="69" ry="18.2" transform="translate(-2.09 171.88) rotate(-50)"/><ellipse class="cls-1" cx="162.5" cy="76.2" rx="69" ry="18.2" transform="translate(35.31 202.84) rotate(-70)"/><circle class="cls-1" cx="138.9" cy="141.04" r="19.71"/></g></g></svg>