<svg xmlns="http://www.w3.org/2000/svg" viewBox="0 0 137.06 213.07"><defs><style>.cls-1,.cls-2{fill:#fff;}.cls-1{stroke:#000;stroke-miterlimit:10;stroke-width:3.09px;}</style></defs><title>Asset 3</title><g id="Layer_2" data-name="Layer 2"><g id="Layer_1-2" data-name="Layer 1"><path class="cls-1" d="M135.52,123.52c0,48.6-29.1,88-65,88s-65-39.4-65-88,142.56-118.1,123-88C115.52,55.52,135.52,74.92,135.52,123.52Z"/><path class="cls-1" d="M11,71.18c33.4-35.3,75.62-93.58,65.56-59.11s69.95,59.46,28.87,148.46"/><path class="cls-1" d="M5.52,123.52c0-48.6-12.56-118.1,7-88,13,20,123,39.4,123,88"/><ellipse class="cls-2" cx="99.52" cy="143.02" rx="23" ry="33.5"/><path class="cls-1" d="M5.52,28.52s0,81,50,101c19.14,7.66,44,34,15,82"/></g></g></svg>