<svg xmlns="http://www.w3.org/2000/svg" viewBox="0 0 197.38 241.64"><defs><style>.cls-1{fill:none;}.cls-1,.cls-2{stroke:#000;stroke-miterlimit:10;stroke-width:3.09px;}.cls-2{fill:#fff;}</style></defs><title>Asset 2</title><g id="Layer_2" data-name="Layer 2"><g id="Layer_1-2" data-name="Layer 1"><path class="cls-1" d="M102.19,98.19s-62,109,25,142"/><path class="cls-2" d="M158.69,20.69c0,43.08-60,78-60,78s-60-34.92-60-78,60,0,60,0S158.69-22.39,158.69,20.69Z"/><path class="cls-2" d="M20.69,38.69c43.08,0,78,60,78,60s-34.92,60-78,60,0-60,0-60S-22.39,38.69,20.69,38.69Z"/><path class="cls-2" d="M176.69,158.69c-43.08,0-78-60-78-60s34.92-60,78-60,0,60,0,60S219.77,158.69,176.69,158.69Z"/></g></g></svg>